<?xml version="1.0" encoding="utf-8"?>
<!-- Generator: Adobe Illustrator 13.0.0, SVG Export Plug-In . SVG Version: 6.00 Build 14948)  -->
<!DOCTYPE svg PUBLIC "-//W3C//DTD SVG 1.1//EN" "http://www.w3.org/Graphics/SVG/1.1/DTD/svg11.dtd">
<svg version="1.1" id="Layer_1" xmlns="http://www.w3.org/2000/svg" xmlns:xlink="http://www.w3.org/1999/xlink" x="0px" y="0px"
	 width="800px" height="220px" viewBox="0 0 800 220" enable-background="new 0 0 800 220" xml:space="preserve">
<g>
	<g>
		<path fill="#0055FF" d="M122.832,113.306c1.591,0,2.787,0.597,3.584,1.792c0.796,1.195,1.196,2.74,1.196,4.631
			c0,2.986-0.723,5.527-2.166,7.617c-1.445,2.092-3.909,3.984-7.394,5.676c-5.875,2.789-13.495,5.004-22.854,6.646
			c-9.36,1.645-18.574,2.465-27.634,2.465c-12.547,0-23.055-1.418-31.519-4.256s-14.764-6.744-18.895-11.727
			c-4.132-4.979-6.198-10.604-6.198-16.878c0-8.563,2.763-15.856,8.289-21.883c5.528-6.023,13.668-10.38,24.423-13.07
			c-5.876-1.692-10.381-4.68-13.518-8.963c-3.136-4.279-4.706-9.06-4.706-14.339c0-7.169,2.264-13.518,6.797-19.045
			c4.529-5.527,10.628-9.784,18.298-12.771c7.667-2.987,16.081-4.48,25.243-4.48c12.347,0,21.608,2.665,27.784,7.991
			c6.173,5.329,9.26,12.225,9.26,20.688c0,5.876-1.071,10.631-3.212,14.265c-2.142,3.636-5.205,5.451-9.186,5.451
			c-2.789,0-4.981-0.62-6.571-1.868c-1.596-1.242-2.391-3.11-2.391-5.601c0-1.692,0.246-3.533,0.747-5.525
			c0.498-3.287,0.747-5.527,0.747-6.722c0-3.585-1.343-6.499-4.033-8.739c-2.688-2.241-7.17-3.361-13.443-3.361
			c-8.465,0-15.235,1.793-20.314,5.378c-5.08,3.584-7.618,8.416-7.618,14.488c0,4.682,1.916,8.541,5.75,11.576
			c3.833,3.04,10.083,4.706,18.746,5.004c2.19,0.101,3.734,0.597,4.631,1.494c0.896,0.896,1.344,2.389,1.344,4.481
			c0,6.572-2.988,9.909-8.962,10.008c-8.267,0.2-15.112,1.344-20.539,3.435c-5.428,2.091-9.36,4.757-11.799,7.991
			c-2.442,3.237-3.662,6.699-3.662,10.382c0,6.176,2.888,10.83,8.665,13.966c5.774,3.137,14.937,4.705,27.485,4.705
			c8.263,0,17.002-0.971,26.213-2.912c9.21-1.942,17.104-4.307,23.676-7.096C120.591,113.604,121.835,113.306,122.832,113.306z"/>
		<path fill="#0055FF" d="M134.853,141.834c-2.739-2.389-4.107-5.076-4.107-8.064c0-2.59,0.945-4.83,2.838-6.722
			c1.891-1.891,4.679-2.839,8.364-2.839c1.292,0,2.812,0.126,4.555,0.374c1.741,0.249,3.062,0.425,3.958,0.521
			c-0.1-2.587-0.671-5.026-1.717-7.318c-1.045-2.29-2.367-4.505-3.958-6.647c-1.596-2.14-3.089-4.006-4.48-5.601
			c-3.09,5.877-6.15,10.755-9.188,14.638c-3.04,3.885-6.348,7.569-9.934,11.055c-1.792,1.791-3.685,2.688-5.676,2.688
			c-1.595,0-2.89-0.572-3.885-1.719c-0.994-1.143-1.494-2.561-1.494-4.256c0-1.991,0.699-3.832,2.092-5.527l1.943-2.389
			c5.475-6.771,9.607-12.347,12.396-16.73c1.692-2.886,3.685-6.745,5.975-11.576c2.29-4.828,4.531-9.833,6.722-15.011
			c1.891-4.38,5.826-6.573,11.801-6.573c2.786,0,4.729,0.25,5.826,0.747c1.094,0.5,1.643,1.296,1.643,2.391
			c0,0.597-0.202,1.545-0.598,2.837c-0.398,1.295-0.946,2.59-1.643,3.885c-1.791,3.583-2.688,6.622-2.688,9.111
			c0,1.494,0.523,3.136,1.568,4.929c1.046,1.793,2.664,4.034,4.854,6.722c3.186,4.182,5.602,7.744,7.244,10.68
			c1.644,2.938,2.465,6.15,2.465,9.635c0,0.997-0.1,2.391-0.297,4.184c4.877-1.891,10.604-6.921,17.177-15.088
			c1.193-1.393,2.538-2.091,4.032-2.091c1.292,0,2.316,0.597,3.063,1.792c0.746,1.195,1.12,2.837,1.12,4.929
			c0,3.785-0.949,6.871-2.839,9.262c-4.98,6.174-9.735,10.379-14.266,12.621c-4.531,2.24-10.132,3.461-16.804,3.658
			c-3.983,3.385-8.714,5.08-14.191,5.08C141.548,145.42,137.59,144.225,134.853,141.834z"/>
		<path fill="#0055FF" d="M265.55,109.87c0.747,1.195,1.121,2.837,1.121,4.929c0,3.984-0.947,7.072-2.837,9.262
			c-4.283,5.279-8.888,9.609-13.817,12.994c-4.929,3.387-10.53,5.078-16.804,5.078c-5.279,0-9.559-1.891-12.847-5.676
			c-5.674,3.686-11.601,5.576-17.774,5.676c-1.295,19.219-4.234,35.275-8.812,48.174c-4.583,12.895-11.305,19.344-20.166,19.344
			c-5.378,0-9.359-1.941-11.95-5.826c-2.589-3.883-3.884-9.262-3.884-16.133c0-9.76,2.24-21.137,6.721-34.131
			c4.481-12.996,11.402-27.31,20.762-42.943c0-14.539-0.1-24.646-0.297-30.324c-0.101-2.887,1.044-5.176,3.435-6.871
			c2.391-1.692,5.378-2.54,8.962-2.54c2.09,0,3.607,0.425,4.556,1.271c0.945,0.846,1.467,2.515,1.569,5.003
			c0,2.49,0.048,4.332,0.149,5.527c3.186-3.982,6.322-6.846,9.41-8.589c3.085-1.741,6.372-2.614,9.86-2.614
			c5.575,0,10.13,2.24,13.666,6.721c3.535,4.481,5.303,10.359,5.303,17.626c0,5.279-0.846,10.407-2.538,15.384
			c-1.695,4.982-4.035,9.512-7.022,13.594c2.092,0.598,3.833,0.896,5.229,0.896c3.288,0,6.424-1.195,9.411-3.586
			c2.988-2.389,6.819-6.371,11.5-11.949c1.196-1.393,2.542-2.091,4.035-2.091C263.783,108.077,264.803,108.674,265.55,109.87z
			 M181.529,177.461c1.794-11.703,2.938-26.268,3.437-43.691c-4.283,9.955-7.67,19.467-10.159,28.529
			c-2.487,9.061-3.734,16.678-3.734,22.854c0,3.186,0.373,5.625,1.12,7.32c0.747,1.691,1.62,2.539,2.614,2.539
			C177.497,195.012,179.737,189.16,181.529,177.461z M213.271,121.895c3.037-3.139,5.452-7.021,7.246-11.651
			c1.792-4.632,2.688-9.486,2.688-14.564c0-2.987-0.598-5.251-1.791-6.797c-1.196-1.542-2.789-2.315-4.782-2.315
			c-3.584,0-7.915,3.785-12.994,11.353c-0.101,4.382-0.149,10.806-0.149,19.267c0,4.582-0.053,8.119-0.15,10.607
			C206.922,126.998,210.233,125.03,213.271,121.895z"/>
		<path fill="#0055FF" d="M258.829,135.264c-2.939-4.58-4.407-10.654-4.407-18.225c0-4.48,0.572-10.232,1.717-17.251
			c1.144-7.021,2.614-13.567,4.407-19.643c0.897-3.186,2.092-5.377,3.585-6.573c1.494-1.195,3.883-1.791,7.169-1.791
			c5.08,0,7.618,1.693,7.618,5.078c0,2.489-0.947,8.266-2.837,17.328c-2.391,10.955-3.585,18.373-3.585,22.255
			c0,2.987,0.396,5.279,1.194,6.872c0.796,1.593,2.141,2.39,4.033,2.39c1.793,0,4.033-1.244,6.722-3.734
			c2.688-2.488,6.274-6.422,10.755-11.801c1.194-1.393,2.54-2.091,4.033-2.091c1.292,0,2.315,0.597,3.062,1.792
			c0.747,1.195,1.121,2.837,1.121,4.929c0,3.984-0.948,7.072-2.839,9.262c-9.858,12.049-19.069,18.072-27.634,18.072
			C266.469,142.133,261.764,139.844,258.829,135.264z M264.728,59.008c-2.09-1.941-3.136-4.653-3.136-8.139
			c0-3.485,1.369-6.398,4.108-8.739c2.738-2.339,6.146-3.51,10.231-3.51c3.683,0,6.671,0.896,8.962,2.688
			c2.29,1.792,3.437,4.332,3.437,7.617c0,3.985-1.295,7.147-3.885,9.486c-2.59,2.341-6.025,3.51-10.306,3.51
			C269.956,61.921,266.82,60.951,264.728,59.008z"/>
		<path fill="#0055FF" d="M293.928,136.158c-1.545-3.982-2.315-10.354-2.315-19.119c0-12.944,1.841-25.244,5.527-36.895
			c0.896-2.887,2.364-5.003,4.407-6.348c2.04-1.345,4.903-2.016,8.589-2.016c1.99,0,3.384,0.249,4.182,0.746
			c0.795,0.499,1.195,1.444,1.195,2.837c0,1.595-0.747,5.18-2.241,10.755c-0.996,3.984-1.792,7.469-2.389,10.456
			c-0.598,2.988-1.097,6.672-1.494,11.054c3.285-8.564,6.968-15.535,11.053-20.912c4.083-5.378,8.09-9.21,12.024-11.501
			c3.933-2.291,7.544-3.435,10.829-3.435c6.472,0,9.709,3.236,9.709,9.708c0,1.295-0.448,4.432-1.344,9.41
			c-0.798,3.984-1.194,6.474-1.194,7.469c0,3.486,1.243,5.228,3.734,5.228c2.787,0,6.372-2.19,10.754-6.573
			c1.294-1.293,2.637-1.942,4.033-1.942c1.294,0,2.315,0.575,3.062,1.718c0.747,1.145,1.121,2.665,1.121,4.556
			c0,3.685-0.996,6.572-2.987,8.664c-2.789,2.889-6.049,5.354-9.784,7.394c-3.734,2.042-7.691,3.062-11.875,3.062
			c-5.279,0-9.287-1.345-12.024-4.033c-2.739-2.688-4.107-6.322-4.107-10.904c0-1.494,0.15-2.988,0.447-4.481
			c0.199-1.991,0.299-3.335,0.299-4.033c0-1.592-0.548-2.389-1.642-2.389c-1.494,0-3.462,1.668-5.901,5.003
			c-2.442,3.337-4.855,7.745-7.244,13.22c-2.391,5.478-4.332,11.254-5.826,17.326c-1.097,4.684-2.366,7.842-3.809,9.484
			c-1.445,1.645-3.711,2.465-6.796,2.465C298.134,142.133,295.471,140.143,293.928,136.158z"/>
		<path fill="#0055FF" d="M363.533,135.264c-2.939-4.58-4.406-10.654-4.406-18.225c0-4.48,0.571-10.232,1.717-17.251
			c1.144-7.021,2.614-13.567,4.406-19.643c0.897-3.186,2.092-5.377,3.586-6.573c1.493-1.195,3.883-1.791,7.169-1.791
			c5.08,0,7.618,1.693,7.618,5.078c0,2.489-0.947,8.266-2.837,17.328c-2.391,10.955-3.585,18.373-3.585,22.255
			c0,2.987,0.396,5.279,1.194,6.872c0.797,1.593,2.141,2.39,4.033,2.39c1.793,0,4.033-1.244,6.722-3.734
			c2.688-2.488,6.274-6.422,10.754-11.801c1.195-1.393,2.539-2.091,4.033-2.091c1.293,0,2.315,0.597,3.063,1.792
			c0.747,1.195,1.12,2.837,1.12,4.929c0,3.984-0.948,7.072-2.839,9.262c-9.857,12.049-19.07,18.072-27.634,18.072
			C371.174,142.133,366.468,139.844,363.533,135.264z M369.432,59.008c-2.09-1.941-3.136-4.653-3.136-8.139
			c0-3.485,1.369-6.398,4.107-8.739c2.738-2.339,6.147-3.51,10.232-3.51c3.683,0,6.67,0.896,8.962,2.688
			c2.29,1.792,3.437,4.332,3.437,7.617c0,3.985-1.295,7.147-3.884,9.486c-2.591,2.341-6.026,3.51-10.306,3.51
			C374.661,61.921,371.524,60.951,369.432,59.008z"/>
		<path fill="#0055FF" d="M465.703,109.87c0.746,1.195,1.119,2.837,1.119,4.929c0,3.984-0.947,7.072-2.839,9.262
			c-4.282,5.279-8.961,9.609-14.039,12.994c-5.079,3.387-10.905,5.078-17.477,5.078c-20.316,0-30.473-14.287-30.473-42.869
			c0-4.38,0.149-8.812,0.447-13.293h-5.824c-2.987,0-5.005-0.547-6.05-1.644c-1.045-1.094-1.569-2.837-1.569-5.229
			c0-5.575,2.241-8.364,6.722-8.364h8.515c1.691-10.954,4.281-20.961,7.767-30.024c3.485-9.061,7.693-16.281,12.622-21.659
			c4.929-5.376,10.232-8.065,15.907-8.065c4.185,0,7.47,1.844,9.859,5.527c2.391,3.685,3.584,8.314,3.584,13.891
			c0,15.437-6.473,28.879-19.418,40.331h16.73c1.591,0,2.737,0.35,3.436,1.046c0.694,0.697,1.045,1.992,1.045,3.882
			c0,6.871-5.626,10.308-16.879,10.308h-18.223c-0.2,4.98-0.299,8.863-0.299,11.65c0,10.359,1.219,17.625,3.659,21.808
			c2.438,4.183,6.297,6.274,11.576,6.274c4.281,0,8.066-1.293,11.354-3.883c3.285-2.59,7.169-6.473,11.65-11.652
			c1.194-1.393,2.54-2.091,4.033-2.091C463.934,108.077,464.956,108.674,465.703,109.87z M431.495,30.926
			c-1.843,3.734-3.583,8.914-5.228,15.535c-1.643,6.624-3.012,13.965-4.107,22.032c5.874-5.079,10.281-10.778,13.221-17.104
			c2.935-6.322,4.405-12.073,4.405-17.252c0-5.874-1.098-8.813-3.286-8.813C435.008,25.325,433.338,27.192,431.495,30.926z"/>
		<path fill="#0055FF" d="M619.703,20.544c1.543,1.494,2.314,3.239,2.314,5.229c0,3.286-0.922,5.677-2.763,7.171
			c-1.843,1.493-4.757,2.09-8.739,1.791c-8.963-0.694-15.958-1.168-20.986-1.418c-5.029-0.248-11.627-0.423-19.791-0.523
			c-3.686,18.324-7.072,36.747-10.158,55.268c-1.097,6.772-2.24,14.615-3.435,23.526c-1.194,8.914-1.994,16.108-2.391,21.585
			c-0.2,2.889-1.396,5.104-3.584,6.646c-2.192,1.545-4.832,2.314-7.917,2.314c-3.286,0-5.826-0.795-7.619-2.389
			c-1.792-1.594-2.688-3.684-2.688-6.273c0-2.391,0.374-6.348,1.121-11.875s1.618-11.327,2.614-17.403
			c1.094-6.072,1.941-11.352,2.539-15.833c1.095-7.566,2.339-15.086,3.734-22.555c1.393-7.468,2.786-14.539,4.182-21.211
			c0.299-1.494,0.646-3.212,1.047-5.153c0.396-1.942,0.845-4.107,1.344-6.497c-9.761,0.297-17.428,1.097-23.004,2.39
			c-5.578,1.295-9.536,3.113-11.875,5.452c-2.341,2.34-3.509,5.354-3.509,9.037c0,3.386,0.993,6.624,2.987,9.709
			c0.396,0.698,0.596,1.444,0.596,2.241c0,1.892-1.12,3.66-3.36,5.303s-4.556,2.465-6.944,2.465c-1.695,0-3.088-0.498-4.185-1.494
			c-1.992-1.692-3.635-4.107-4.929-7.245c-1.295-3.136-1.941-6.696-1.941-10.679c0-8.463,2.764-15.26,8.29-20.39
			c5.526-5.127,13.94-8.889,25.245-11.277c11.3-2.391,25.813-3.586,43.541-3.586c10.952,0,19.691,0.202,26.215,0.598
			c6.521,0.398,12.223,1.046,17.102,1.941C615.844,18.006,618.158,19.051,619.703,20.544z"/>
		<path fill="#0055FF" d="M654.654,109.87c0.748,1.195,1.121,2.837,1.121,4.929c0,3.984-0.948,7.072-2.839,9.262
			c-3.686,4.48-8.888,8.613-15.61,12.396c-6.722,3.785-13.916,5.676-21.582,5.676c-10.456,0-18.574-2.838-24.35-8.514
			c-5.776-5.676-8.662-13.443-8.662-23.301c0-6.872,1.442-13.269,4.331-19.195c2.888-5.922,6.895-10.628,12.025-14.114
			c5.127-3.485,10.927-5.228,17.402-5.228c5.772,0,10.402,1.717,13.891,5.152c3.485,3.437,5.228,8.092,5.228,13.967
			c0,6.871-2.465,12.771-7.394,17.7s-13.271,8.838-25.021,11.727c2.489,4.58,7.221,6.871,14.19,6.871
			c4.481,0,9.584-1.568,15.312-4.707c5.726-3.136,10.68-7.244,14.862-12.322c1.194-1.393,2.539-2.091,4.033-2.091
			C652.885,108.077,653.908,108.674,654.654,109.87z M604.615,92.841c-2.539,4.283-3.809,9.461-3.809,15.536v0.297
			c5.874-1.393,10.504-3.483,13.891-6.272c3.385-2.788,5.079-6.024,5.079-9.709c0-1.891-0.523-3.411-1.568-4.557
			c-1.046-1.144-2.464-1.717-4.257-1.717C610.265,86.418,607.155,88.562,604.615,92.841z"/>
		<path fill="#0055FF" d="M649.426,133.844c-5.43-5.527-8.142-12.82-8.142-21.883c0-8.066,1.592-15.136,4.78-21.211
			c3.186-6.073,7.318-10.753,12.397-14.04c5.078-3.287,10.405-4.929,15.983-4.929c5.475,0,9.732,1.619,12.771,4.854
			c3.036,3.236,4.556,7.393,4.556,12.472c0,4.182-0.922,7.718-2.763,10.604c-1.845,2.89-4.258,4.333-7.245,4.333
			c-1.893,0-3.412-0.448-4.556-1.345c-1.146-0.896-1.719-2.14-1.719-3.734c0-0.694,0.1-1.494,0.299-2.39
			c0.199-0.896,0.349-1.543,0.448-1.941c0.497-1.494,0.747-2.887,0.747-4.183c0-1.294-0.324-2.29-0.971-2.987
			c-0.648-0.696-1.567-1.046-2.764-1.046c-2.292,0-4.431,1.022-6.423,3.062c-1.992,2.042-3.584,4.805-4.779,8.291
			c-1.195,3.487-1.792,7.319-1.792,11.501c0,11.552,5.026,17.327,15.086,17.327c4.081,0,8.488-1.366,13.219-4.108
			c4.729-2.736,9.386-6.844,13.968-12.322c1.193-1.393,2.539-2.091,4.032-2.091c1.293,0,2.315,0.597,3.063,1.792
			c0.747,1.195,1.12,2.837,1.12,4.929c0,3.785-0.948,6.871-2.839,9.262c-4.682,5.775-10.282,10.23-16.804,13.367
			c-6.524,3.137-12.822,4.705-18.896,4.705C662.442,142.133,654.852,139.371,649.426,133.844z"/>
		<path fill="#0055FF" d="M784.604,109.87c0.748,1.195,1.121,2.837,1.121,4.929c0,3.984-0.946,7.072-2.838,9.262
			c-4.581,5.279-9.287,9.609-14.116,12.994c-4.83,3.387-10.331,5.078-16.505,5.078c-5.079,0-8.913-1.467-11.502-4.406
			c-2.59-2.936-3.883-7.193-3.883-12.771c0-2.786,0.695-7.769,2.091-14.937c1.293-6.274,1.941-10.605,1.941-12.996
			c0-1.592-0.548-2.389-1.643-2.389c-1.296,0-3.137,1.668-5.527,5.003c-2.39,3.337-4.779,7.745-7.17,13.22
			c-2.389,5.478-4.331,11.254-5.825,17.326c-1.893,7.967-6.571,11.949-14.04,11.949c-2.988,0-4.955-1.068-5.9-3.211
			c-0.949-2.141-1.419-5.998-1.419-11.576c0-3.186,0.049-5.725,0.149-7.617l0.149-11.95c0-15.334,1.567-31.317,4.706-47.948
			c3.136-16.629,7.766-30.596,13.891-41.9c6.123-11.301,13.467-16.953,22.032-16.953c4.579,0,8.29,1.968,11.129,5.9
			c2.837,3.934,4.257,9.037,4.257,15.311c0,10.06-2.938,20.489-8.814,31.294c-5.875,10.806-15.436,23.427-28.679,37.865
			c-0.299,5.178-0.448,10.507-0.448,15.982c3.286-8.463,6.945-15.36,10.979-20.688c4.033-5.326,8.014-9.134,11.949-11.426
			c3.933-2.291,7.544-3.435,10.83-3.435c6.473,0,9.709,3.236,9.709,9.708c0,3.883-1.097,10.904-3.286,21.061
			c-1.895,8.663-2.839,14.392-2.839,17.179c0,3.982,1.442,5.975,4.332,5.975c1.992,0,4.356-1.219,7.095-3.66
			c2.738-2.439,6.398-6.396,10.979-11.875c1.197-1.393,2.539-2.091,4.033-2.091C782.838,108.077,783.858,108.674,784.604,109.87z
			 M731.204,23.458c-2.189,5.13-4.307,12.05-6.348,20.763c-2.042,8.714-3.711,18.2-5.004,28.456
			c6.174-7.268,11.277-15.186,15.312-23.751c4.033-8.563,6.049-16.33,6.049-23.302c0-3.186-0.35-5.625-1.046-7.32
			c-0.697-1.692-1.693-2.538-2.987-2.538C735.389,15.766,733.395,18.33,731.204,23.458z"/>
	</g>
	<g>
		<rect x="22.753" y="160.145" fill="#919191" width="119.497" height="7.469"/>
		<rect x="213.036" y="160.145" fill="#919191" width="574.271" height="7.469"/>
	</g>
	<g>
		<path fill="#919191" d="M101.819,211.988l6.27-29.938h3.982l-6.249,29.938H101.819z"/>
		<path fill="#919191" d="M120.546,211.988l5.535-26.527h-9.823l0.715-3.41h23.567l-0.715,3.41h-9.741l-5.534,26.527H120.546z"/>
		<path fill="#919191" d="M209.259,202.311l3.921-0.369l-0.041,1.043c0,1.156,0.265,2.215,0.796,3.176
			c0.531,0.959,1.409,1.701,2.634,2.225s2.681,0.787,4.37,0.787c2.396,0,4.225-0.523,5.483-1.572s1.889-2.248,1.889-3.596
			c0-0.939-0.334-1.797-1-2.572c-0.681-0.764-2.54-1.797-5.575-3.104c-2.356-1.021-3.962-1.805-4.82-2.35
			c-1.348-0.885-2.343-1.848-2.981-2.889c-0.641-1.043-0.96-2.23-0.96-3.564c0-1.539,0.421-2.928,1.266-4.166
			c0.843-1.238,2.08-2.186,3.707-2.838c1.626-0.654,3.461-0.98,5.503-0.98c2.436,0,4.493,0.408,6.167,1.225
			c1.674,0.816,2.89,1.906,3.646,3.268c0.755,1.361,1.133,2.662,1.133,3.9c0,0.123-0.007,0.328-0.02,0.613l-3.86,0.307
			c0-0.846-0.076-1.504-0.225-1.98c-0.272-0.832-0.694-1.533-1.266-2.104c-0.572-0.572-1.358-1.031-2.359-1.379
			c-1-0.348-2.121-0.521-3.359-0.521c-2.179,0-3.875,0.49-5.085,1.471c-0.927,0.748-1.389,1.744-1.389,2.98
			c0,0.736,0.19,1.393,0.572,1.971c0.381,0.58,1.068,1.148,2.063,1.707c0.708,0.395,2.389,1.176,5.044,2.348
			c2.15,0.953,3.635,1.703,4.452,2.246c1.088,0.723,1.926,1.596,2.512,2.625c0.585,1.027,0.878,2.195,0.878,3.502
			c0,1.621-0.493,3.115-1.48,4.482c-0.988,1.367-2.353,2.428-4.095,3.176c-1.743,0.748-3.737,1.123-5.984,1.123
			c-3.39,0-6.157-0.738-8.301-2.217C210.352,208.807,209.272,206.148,209.259,202.311z"/>
		<path fill="#919191" d="M251.532,204.617l3.595,0.367c-0.518,1.785-1.706,3.479-3.564,5.086c-1.858,1.605-4.074,2.408-6.647,2.408
			c-1.607,0-3.081-0.369-4.421-1.111c-1.34-0.744-2.362-1.82-3.063-3.238c-0.701-1.416-1.051-3.029-1.051-4.838
			c0-2.371,0.548-4.668,1.644-6.895c1.096-2.225,2.515-3.879,4.258-4.961c1.742-1.084,3.628-1.625,5.657-1.625
			c2.586,0,4.653,0.805,6.198,2.41c1.545,1.605,2.318,3.799,2.318,6.576c0,1.063-0.096,2.152-0.286,3.268h-15.97
			c-0.056,0.422-0.082,0.805-0.082,1.145c0,2.027,0.467,3.576,1.398,4.645c0.932,1.07,2.073,1.604,3.421,1.604
			c1.266,0,2.512-0.416,3.737-1.246C249.898,207.381,250.851,206.184,251.532,204.617z M240.79,199.246h12.171
			c0.014-0.381,0.021-0.652,0.021-0.816c0-1.852-0.464-3.271-1.389-4.258c-0.926-0.988-2.118-1.48-3.574-1.48
			c-1.58,0-3.02,0.543-4.319,1.633C242.401,195.414,241.429,197.055,240.79,199.246z"/>
		<path fill="#919191" d="M258.864,211.988l4.534-21.688h3.267l-0.918,4.432c1.116-1.674,2.208-2.912,3.277-3.717
			c1.069-0.803,2.161-1.205,3.278-1.205c0.735,0,1.64,0.266,2.716,0.797l-1.511,3.432c-0.641-0.463-1.342-0.695-2.104-0.695
			c-1.294,0-2.621,0.723-3.982,2.166c-1.363,1.441-2.431,4.035-3.207,7.781l-1.838,8.697H258.864z"/>
		<path fill="#919191" d="M278.264,211.988l-3.553-21.688h3.594l1.859,11.947c0.204,1.307,0.455,3.439,0.755,6.393
			c0.708-1.539,1.613-3.301,2.716-5.289l7.25-13.051h3.9l-12.417,21.688H278.264z"/>
		<path fill="#919191" d="M293.561,211.988l4.534-21.688h3.696l-4.534,21.688H293.561z M298.952,186.238l0.877-4.188h3.676
			l-0.878,4.188H298.952z"/>
		<path fill="#919191" d="M317.964,204.086l3.697,0.389c-0.926,2.709-2.244,4.721-3.952,6.035c-1.708,1.314-3.653,1.969-5.831,1.969
			c-2.356,0-4.266-0.762-5.729-2.287c-1.463-1.523-2.195-3.654-2.195-6.391c0-2.369,0.47-4.697,1.409-6.984s2.284-4.027,4.033-5.219
			s3.748-1.787,5.994-1.787c2.329,0,4.172,0.656,5.535,1.971c1.361,1.314,2.042,3.055,2.042,5.219l-3.635,0.244
			c-0.015-1.375-0.412-2.449-1.195-3.227c-0.783-0.775-1.815-1.164-3.094-1.164c-1.485,0-2.771,0.471-3.86,1.41
			c-1.09,0.939-1.943,2.365-2.563,4.277s-0.929,3.756-0.929,5.525c0,1.85,0.408,3.24,1.226,4.166
			c0.817,0.926,1.823,1.389,3.022,1.389c1.197,0,2.345-0.457,3.441-1.369S317.337,205.951,317.964,204.086z"/>
		<path fill="#919191" d="M339.836,204.617l3.594,0.367c-0.518,1.785-1.705,3.479-3.563,5.086c-1.858,1.605-4.074,2.408-6.647,2.408
			c-1.607,0-3.081-0.369-4.421-1.111c-1.34-0.744-2.361-1.82-3.063-3.238c-0.702-1.416-1.052-3.029-1.052-4.838
			c0-2.371,0.548-4.668,1.644-6.895c1.095-2.225,2.515-3.879,4.258-4.961c1.742-1.084,3.628-1.625,5.657-1.625
			c2.586,0,4.653,0.805,6.198,2.41c1.544,1.605,2.318,3.799,2.318,6.576c0,1.063-0.097,2.152-0.286,3.268h-15.97
			c-0.056,0.422-0.082,0.805-0.082,1.145c0,2.027,0.467,3.576,1.399,4.645c0.933,1.07,2.073,1.604,3.421,1.604
			c1.266,0,2.512-0.416,3.737-1.246S339.155,206.184,339.836,204.617z M329.095,199.246h12.171c0.013-0.381,0.021-0.652,0.021-0.816
			c0-1.852-0.464-3.271-1.389-4.258c-0.926-0.988-2.119-1.48-3.574-1.48c-1.58,0-3.02,0.543-4.319,1.633
			C330.705,195.414,329.733,197.055,329.095,199.246z"/>
		<path fill="#919191" d="M347.515,204.576l3.696-0.225c0,1.063,0.163,1.969,0.491,2.717c0.327,0.748,0.929,1.359,1.807,1.838
			c0.878,0.477,1.902,0.715,3.074,0.715c1.634,0,2.859-0.326,3.676-0.98s1.226-1.422,1.226-2.309c0-0.639-0.245-1.244-0.735-1.816
			c-0.504-0.572-1.733-1.277-3.686-2.113c-1.953-0.838-3.204-1.428-3.748-1.768c-0.913-0.559-1.6-1.215-2.063-1.971
			c-0.464-0.756-0.695-1.623-0.695-2.604c0-1.715,0.68-3.186,2.043-4.412c1.361-1.225,3.267-1.838,5.718-1.838
			c2.722,0,4.796,0.631,6.218,1.891c1.422,1.258,2.161,2.916,2.216,4.973l-3.614,0.244c-0.056-1.307-0.518-2.342-1.389-3.104
			c-0.872-0.764-2.104-1.145-3.696-1.145c-1.28,0-2.274,0.293-2.981,0.879c-0.709,0.584-1.062,1.219-1.062,1.898
			c0,0.682,0.307,1.279,0.919,1.797c0.408,0.355,1.463,0.898,3.166,1.635c2.832,1.225,4.615,2.191,5.35,2.9
			c1.17,1.131,1.757,2.504,1.757,4.125c0,1.074-0.33,2.131-0.991,3.164c-0.661,1.035-1.667,1.863-3.022,2.482
			s-2.951,0.928-4.789,0.928c-2.506,0-4.636-0.619-6.392-1.857C348.25,209.383,347.419,207.367,347.515,204.576z"/>
		<path fill="#919191" d="M383.825,211.988l-2.267-21.688h3.553l0.98,9.742l0.388,5.473c0.026,0.408,0.067,1.232,0.122,2.471
			c0.409-1.389,0.755-2.453,1.042-3.195c0.286-0.742,0.741-1.801,1.369-3.176l5.167-11.314h4.023l0.715,10.844
			c0.108,1.648,0.176,3.848,0.204,6.598c0.68-1.826,1.79-4.357,3.329-7.598l4.656-9.844h3.696l-10.6,21.688h-3.838l-0.817-12.721
			c-0.056-0.789-0.096-2.328-0.123-4.615c-0.558,1.457-1.22,3.029-1.981,4.717l-5.738,12.619H383.825z"/>
		<path fill="#919191" d="M409.761,211.988l4.533-21.688h3.697l-4.533,21.688H409.761z M415.152,186.238l0.879-4.188h3.675
			l-0.878,4.188H415.152z"/>
		<path fill="#919191" d="M427.834,208.988l-0.611,3.021c-0.887,0.232-1.744,0.348-2.574,0.348c-1.47,0-2.641-0.361-3.513-1.082
			c-0.653-0.545-0.979-1.287-0.979-2.227c0-0.477,0.176-1.572,0.53-3.287l2.635-12.602h-2.92l0.592-2.859h2.92l1.124-5.33
			l4.227-2.553l-1.653,7.883h3.635l-0.613,2.859h-3.614l-2.512,11.988c-0.313,1.523-0.47,2.438-0.47,2.736
			c0,0.436,0.126,0.77,0.378,1c0.252,0.232,0.664,0.348,1.234,0.348C426.466,209.232,427.194,209.15,427.834,208.988z"/>
		<path fill="#919191" d="M430.816,211.988l6.248-29.938h3.697l-2.39,11.498c1.376-1.336,2.655-2.291,3.839-2.869
			c1.185-0.58,2.403-0.869,3.656-0.869c1.797,0,3.192,0.473,4.187,1.42c0.993,0.947,1.49,2.195,1.49,3.748
			c0,0.762-0.217,2.164-0.653,4.207l-2.675,12.803h-3.696l2.756-13.131c0.396-1.906,0.594-3.104,0.594-3.594
			c0-0.707-0.246-1.285-0.736-1.736c-0.489-0.449-1.197-0.674-2.123-0.674c-1.335,0-2.607,0.352-3.819,1.053s-2.162,1.66-2.85,2.879
			c-0.686,1.219-1.316,3.184-1.888,5.893l-1.94,9.311H430.816z"/>
		<path fill="#919191" d="M480.318,209.295c-1.279,1.102-2.512,1.908-3.696,2.42c-1.184,0.51-2.45,0.764-3.798,0.764
			c-2.002,0-3.614-0.588-4.841-1.766c-1.225-1.178-1.837-2.686-1.837-4.523c0-1.211,0.275-2.283,0.826-3.217
			c0.552-0.932,1.284-1.682,2.195-2.246c0.912-0.564,2.029-0.969,3.35-1.215c0.83-0.164,2.407-0.293,4.728-0.389
			c2.321-0.094,3.985-0.34,4.993-0.734c0.286-1.008,0.429-1.846,0.429-2.512c0-0.857-0.313-1.531-0.939-2.021
			c-0.857-0.682-2.11-1.021-3.758-1.021c-1.551,0-2.82,0.344-3.809,1.031c-0.987,0.688-1.705,1.664-2.154,2.93l-3.737-0.326
			c0.763-2.152,1.971-3.799,3.625-4.941c1.654-1.145,3.74-1.717,6.26-1.717c2.682,0,4.806,0.641,6.371,1.92
			c1.198,0.953,1.797,2.193,1.797,3.717c0,1.156-0.17,2.5-0.51,4.023l-1.205,5.393c-0.381,1.715-0.572,3.111-0.572,4.186
			c0,0.682,0.15,1.66,0.45,2.939h-3.738C480.543,211.281,480.4,210.383,480.318,209.295z M481.687,201.002
			c-0.518,0.205-1.072,0.361-1.664,0.471s-1.582,0.225-2.972,0.346c-2.151,0.191-3.668,0.434-4.554,0.727s-1.552,0.758-2.001,1.398
			c-0.45,0.641-0.675,1.348-0.675,2.123c0,1.035,0.357,1.887,1.072,2.553c0.715,0.668,1.734,1.002,3.054,1.002
			c1.225,0,2.402-0.324,3.533-0.971c1.13-0.646,2.021-1.549,2.675-2.705C480.809,204.787,481.319,203.139,481.687,201.002z"/>
		<path fill="#919191" d="M502.13,202.311l3.921-0.369l-0.041,1.043c0,1.156,0.266,2.215,0.796,3.176
			c0.531,0.959,1.409,1.701,2.635,2.225c1.225,0.523,2.683,0.787,4.37,0.787c2.396,0,4.225-0.523,5.483-1.572s1.89-2.248,1.89-3.596
			c0-0.939-0.335-1.797-1.001-2.572c-0.682-0.764-2.54-1.797-5.575-3.104c-2.355-1.021-3.962-1.805-4.819-2.35
			c-1.349-0.885-2.342-1.848-2.982-2.889c-0.641-1.043-0.959-2.23-0.959-3.564c0-1.539,0.422-2.928,1.266-4.166
			c0.845-1.238,2.08-2.186,3.706-2.838c1.627-0.654,3.462-0.98,5.505-0.98c2.438,0,4.493,0.408,6.167,1.225s2.889,1.906,3.646,3.268
			c0.756,1.361,1.133,2.662,1.133,3.9c0,0.123-0.007,0.328-0.02,0.613l-3.86,0.307c0-0.846-0.074-1.504-0.225-1.98
			c-0.272-0.832-0.694-1.533-1.266-2.104c-0.572-0.572-1.358-1.031-2.359-1.379c-1-0.348-2.121-0.521-3.359-0.521
			c-2.178,0-3.873,0.49-5.085,1.471c-0.927,0.748-1.389,1.744-1.389,2.98c0,0.736,0.191,1.393,0.572,1.971
			c0.38,0.58,1.069,1.148,2.063,1.707c0.707,0.395,2.389,1.176,5.043,2.348c2.152,0.953,3.636,1.703,4.453,2.246
			c1.089,0.723,1.927,1.596,2.512,2.625c0.585,1.027,0.878,2.195,0.878,3.502c0,1.621-0.493,3.115-1.48,4.482
			s-2.352,2.428-4.095,3.176s-3.737,1.123-5.983,1.123c-3.39,0-6.157-0.738-8.302-2.217
			C503.222,208.807,502.143,206.148,502.13,202.311z"/>
		<path fill="#919191" d="M526.656,220.301l6.27-30h3.41l-0.633,3.023c1.267-1.32,2.399-2.236,3.4-2.748
			c1.001-0.51,2.059-0.766,3.175-0.766c2.07,0,3.786,0.754,5.146,2.258c1.361,1.504,2.043,3.658,2.043,6.463
			c0,2.26-0.375,4.32-1.124,6.178c-0.747,1.859-1.667,3.352-2.757,4.482s-2.191,1.961-3.309,2.492
			c-1.116,0.531-2.26,0.795-3.431,0.795c-2.601,0-4.615-1.318-6.045-3.961l-2.45,11.783H526.656z M533.968,203.127
			c0,1.619,0.114,2.744,0.347,3.369c0.34,0.885,0.898,1.6,1.675,2.145s1.674,0.816,2.695,0.816c2.124,0,3.84-1.195,5.146-3.584
			s1.96-4.83,1.96-7.32c0-1.84-0.438-3.258-1.316-4.258c-0.878-1.002-1.972-1.502-3.278-1.502c-0.939,0-1.81,0.248-2.614,0.746
			c-0.804,0.496-1.548,1.238-2.235,2.225c-0.688,0.988-1.257,2.195-1.706,3.625C534.192,200.818,533.968,202.064,533.968,203.127z"
			/>
		<path fill="#919191" d="M551.449,211.988l6.248-29.938h3.696l-6.249,29.938H551.449z"/>
		<path fill="#919191" d="M576.955,204.617l3.595,0.367c-0.518,1.785-1.706,3.479-3.564,5.086c-1.858,1.605-4.073,2.408-6.646,2.408
			c-1.606,0-3.081-0.369-4.422-1.111c-1.341-0.744-2.361-1.82-3.063-3.238c-0.702-1.416-1.051-3.029-1.051-4.838
			c0-2.371,0.548-4.668,1.644-6.895c1.096-2.225,2.515-3.879,4.258-4.961c1.743-1.084,3.628-1.625,5.656-1.625
			c2.587,0,4.654,0.805,6.198,2.41c1.545,1.605,2.318,3.799,2.318,6.576c0,1.063-0.096,2.152-0.285,3.268h-15.971
			c-0.054,0.422-0.081,0.805-0.081,1.145c0,2.027,0.466,3.576,1.397,4.645c0.934,1.07,2.074,1.604,3.421,1.604
			c1.267,0,2.513-0.416,3.738-1.246C575.321,207.381,576.273,206.184,576.955,204.617z M566.213,199.246h12.172
			c0.013-0.381,0.021-0.652,0.021-0.816c0-1.852-0.462-3.271-1.389-4.258c-0.926-0.988-2.116-1.48-3.573-1.48
			c-1.58,0-3.021,0.543-4.32,1.633C567.824,195.414,566.854,197.055,566.213,199.246z"/>
		<path fill="#919191" d="M584.287,211.988l4.533-21.688h3.35l-0.797,3.779c1.457-1.484,2.818-2.566,4.085-3.248
			c1.266-0.682,2.56-1.021,3.88-1.021c1.756,0,3.135,0.479,4.135,1.43c1.001,0.953,1.501,2.227,1.501,3.82
			c0,0.803-0.176,2.068-0.53,3.797l-2.757,13.131h-3.697l2.88-13.742c0.286-1.336,0.43-2.322,0.43-2.961
			c0-0.723-0.249-1.307-0.746-1.758c-0.498-0.449-1.215-0.674-2.154-0.674c-1.892,0-3.577,0.682-5.055,2.043
			s-2.563,3.697-3.257,7.004l-2.104,10.088H584.287z"/>
		<path fill="#919191" d="M622.169,208.844c-2.109,2.424-4.315,3.635-6.616,3.635c-2.055,0-3.768-0.758-5.137-2.275
			c-1.368-1.52-2.052-3.721-2.052-6.607c0-2.641,0.541-5.055,1.624-7.238c1.082-2.186,2.438-3.822,4.063-4.912
			s3.257-1.635,4.891-1.635c2.696,0,4.73,1.301,6.106,3.9l2.451-11.66h3.675l-6.248,29.938h-3.411L622.169,208.844z M612.04,202.902
			c0,1.51,0.15,2.703,0.45,3.574c0.299,0.869,0.809,1.594,1.531,2.174c0.722,0.58,1.585,0.867,2.593,0.867
			c1.675,0,3.193-0.869,4.555-2.613c1.825-2.314,2.736-5.174,2.736-8.576c0-1.717-0.449-3.057-1.348-4.023s-2.029-1.451-3.391-1.451
			c-0.885,0-1.692,0.197-2.42,0.594c-0.728,0.395-1.449,1.064-2.164,2.01c-0.715,0.947-1.318,2.148-1.808,3.605
			C612.285,200.52,612.04,201.799,612.04,202.902z"/>
		<path fill="#919191" d="M630.665,211.988l4.534-21.688h3.695l-4.533,21.688H630.665z M636.057,186.238l0.878-4.188h3.676
			l-0.878,4.188H636.057z"/>
		<path fill="#919191" d="M654.722,208.844c-2.11,2.424-4.315,3.635-6.617,3.635c-2.055,0-3.767-0.758-5.136-2.275
			c-1.368-1.52-2.052-3.721-2.052-6.607c0-2.641,0.541-5.055,1.623-7.238c1.083-2.186,2.438-3.822,4.063-4.912
			c1.627-1.09,3.258-1.635,4.892-1.635c2.696,0,4.73,1.301,6.105,3.9l2.452-11.66h3.675l-6.248,29.938h-3.411L654.722,208.844z
			 M644.593,202.902c0,1.51,0.149,2.703,0.448,3.574c0.3,0.869,0.811,1.594,1.532,2.174c0.723,0.58,1.586,0.867,2.594,0.867
			c1.675,0,3.193-0.869,4.554-2.613c1.826-2.314,2.736-5.174,2.736-8.576c0-1.717-0.448-3.057-1.348-4.023
			c-0.897-0.967-2.028-1.451-3.39-1.451c-0.885,0-1.692,0.197-2.42,0.594c-0.728,0.395-1.449,1.064-2.164,2.01
			c-0.715,0.947-1.318,2.148-1.808,3.605C644.838,200.52,644.593,201.799,644.593,202.902z"/>
		<path fill="#919191" d="M684.538,211.988l-5.759-29.938h3.859l3.472,17.85c0.641,3.238,1.054,5.854,1.246,7.842
			c1.253-2.561,2.279-4.588,3.083-6.086l10.681-19.605h4.126l-16.419,29.938H684.538z"/>
		<path fill="#919191" d="M701.979,211.988l4.533-21.688h3.696l-4.533,21.688H701.979z M707.369,186.238l0.879-4.188h3.676
			l-0.878,4.188H707.369z"/>
		<path fill="#919191" d="M711.761,204.576l3.696-0.225c0,1.063,0.163,1.969,0.49,2.717c0.326,0.748,0.929,1.359,1.807,1.838
			c0.878,0.477,1.902,0.715,3.074,0.715c1.634,0,2.858-0.326,3.676-0.98c0.816-0.654,1.226-1.422,1.226-2.309
			c0-0.639-0.246-1.244-0.736-1.816c-0.503-0.572-1.732-1.277-3.686-2.113c-1.953-0.838-3.203-1.428-3.748-1.768
			c-0.911-0.559-1.6-1.215-2.063-1.971c-0.462-0.756-0.693-1.623-0.693-2.604c0-1.715,0.681-3.186,2.041-4.412
			c1.361-1.225,3.269-1.838,5.719-1.838c2.723,0,4.796,0.631,6.218,1.891c1.423,1.258,2.163,2.916,2.216,4.973l-3.614,0.244
			c-0.054-1.307-0.518-2.342-1.389-3.104c-0.871-0.764-2.104-1.145-3.695-1.145c-1.28,0-2.274,0.293-2.982,0.879
			c-0.707,0.584-1.062,1.219-1.062,1.898c0,0.682,0.306,1.279,0.919,1.797c0.408,0.355,1.462,0.898,3.165,1.635
			c2.832,1.225,4.615,2.191,5.351,2.9c1.172,1.131,1.757,2.504,1.757,4.125c0,1.074-0.33,2.131-0.991,3.164
			c-0.66,1.035-1.668,1.863-3.021,2.482c-1.355,0.619-2.952,0.928-4.79,0.928c-2.505,0-4.636-0.619-6.392-1.857
			C712.495,209.383,711.666,207.367,711.761,204.576z"/>
		<path fill="#919191" d="M732.183,211.988l4.534-21.688h3.695l-4.533,21.688H732.183z M737.574,186.238l0.878-4.188h3.675
			l-0.877,4.188H737.574z"/>
		<path fill="#919191" d="M742.271,203.76c0-4.234,1.246-7.74,3.737-10.518c2.055-2.287,4.751-3.432,8.087-3.432
			c2.614,0,4.721,0.818,6.321,2.451c1.6,1.635,2.399,3.84,2.399,6.617c0,2.492-0.504,4.809-1.512,6.953s-2.44,3.789-4.299,4.932
			c-1.857,1.145-3.816,1.715-5.872,1.715c-1.687,0-3.223-0.359-4.604-1.082c-1.381-0.721-2.437-1.742-3.165-3.063
			S742.271,205.488,742.271,203.76z M745.967,203.393c0,2.041,0.49,3.59,1.471,4.646c0.979,1.053,2.226,1.582,3.737,1.582
			c0.789,0,1.572-0.16,2.349-0.48s1.498-0.807,2.164-1.459c0.667-0.654,1.236-1.4,1.705-2.236c0.471-0.838,0.848-1.74,1.134-2.707
			c0.422-1.348,0.633-2.641,0.633-3.881c0-1.959-0.492-3.48-1.48-4.563c-0.987-1.084-2.229-1.625-3.727-1.625
			c-1.156,0-2.213,0.275-3.165,0.828c-0.953,0.551-1.815,1.357-2.584,2.42s-1.334,2.297-1.694,3.707
			C746.148,201.033,745.967,202.289,745.967,203.393z"/>
		<path fill="#919191" d="M764.878,211.988l4.534-21.688h3.348l-0.796,3.779c1.458-1.484,2.818-2.566,4.084-3.248
			c1.267-0.682,2.561-1.021,3.881-1.021c1.756,0,3.135,0.479,4.136,1.43c1.001,0.953,1.501,2.227,1.501,3.82
			c0,0.803-0.177,2.068-0.531,3.797l-2.757,13.131h-3.696l2.879-13.742c0.286-1.336,0.429-2.322,0.429-2.961
			c0-0.723-0.247-1.307-0.745-1.758c-0.497-0.449-1.215-0.674-2.154-0.674c-1.892,0-3.576,0.682-5.055,2.043
			c-1.478,1.361-2.563,3.697-3.257,7.004l-2.104,10.088H764.878z"/>
	</g>
</g>
</svg>
